<mxfile host="app.diagrams.net" agent="Mozilla/5.0 (Windows NT 10.0; Win64; x64; rv:131.0) Gecko/20100101 Firefox/131.0" version="24.7.14">
  <diagram name="Page-1" id="x8RHr_3TJelT2WI1tDKV">
    <mxGraphModel dx="699" dy="506" grid="1" gridSize="10" guides="1" tooltips="1" connect="1" arrows="1" fold="1" page="1" pageScale="1" pageWidth="850" pageHeight="1100" math="0" shadow="0">
      <root>
        <mxCell id="0" />
        <mxCell id="1" parent="0" />
        <mxCell id="0BK07vj8BW1-FpH2MkM1-3" value="" style="whiteSpace=wrap;html=1;aspect=fixed;fillStyle=solid;fillColor=#F5E8DA;" parent="1" vertex="1">
          <mxGeometry x="140" y="90" width="430" height="430" as="geometry" />
        </mxCell>
        <mxCell id="0BK07vj8BW1-FpH2MkM1-1" value="" style="whiteSpace=wrap;html=1;aspect=fixed;fillStyle=dots;fillColor=#FAFBFF;" parent="1" vertex="1">
          <mxGeometry x="140" y="90" width="430" height="430" as="geometry" />
        </mxCell>
        <mxCell id="0BK07vj8BW1-FpH2MkM1-8" style="edgeStyle=orthogonalEdgeStyle;rounded=0;orthogonalLoop=1;jettySize=auto;html=1;" parent="1" source="0BK07vj8BW1-FpH2MkM1-4" target="0BK07vj8BW1-FpH2MkM1-6" edge="1">
          <mxGeometry relative="1" as="geometry" />
        </mxCell>
        <mxCell id="0BK07vj8BW1-FpH2MkM1-14" style="edgeStyle=orthogonalEdgeStyle;rounded=0;orthogonalLoop=1;jettySize=auto;html=1;exitX=0.5;exitY=1;exitDx=0;exitDy=0;entryX=0.25;entryY=0;entryDx=0;entryDy=0;fillColor=#d5e8d4;strokeColor=#82b366;strokeWidth=2;gradientColor=#97d077;" parent="1" source="0BK07vj8BW1-FpH2MkM1-4" target="0BK07vj8BW1-FpH2MkM1-10" edge="1">
          <mxGeometry relative="1" as="geometry" />
        </mxCell>
        <mxCell id="0BK07vj8BW1-FpH2MkM1-4" value="&lt;div&gt;ROUTER&lt;/div&gt;&lt;div&gt;Raspberry Pi CM4 + Gigabit Breakout Board&lt;br&gt;&lt;/div&gt;" style="whiteSpace=wrap;html=1;aspect=fixed;" parent="1" vertex="1">
          <mxGeometry x="150" y="105" width="80" height="80" as="geometry" />
        </mxCell>
        <mxCell id="0BK07vj8BW1-FpH2MkM1-6" value="" style="outlineConnect=0;dashed=0;verticalLabelPosition=bottom;verticalAlign=top;align=center;html=1;shape=mxgraph.aws3.internet_3;fillColor=#D2D3D3;gradientColor=none;" parent="1" vertex="1">
          <mxGeometry x="20" y="118" width="79.5" height="54" as="geometry" />
        </mxCell>
        <mxCell id="0BK07vj8BW1-FpH2MkM1-9" value="&lt;font size=&quot;1&quot;&gt;&lt;b&gt;&lt;font style=&quot;font-size: 15px;&quot; color=&quot;#ededed&quot;&gt;Ubiquity &lt;/font&gt;&lt;/b&gt;&lt;font style=&quot;font-size: 15px;&quot; color=&quot;#ededed&quot;&gt;WAP&lt;/font&gt;&lt;b&gt;&lt;font style=&quot;font-size: 15px;&quot; color=&quot;#ededed&quot;&gt;&lt;br&gt;&lt;/font&gt;&lt;/b&gt;&lt;/font&gt;" style="ellipse;whiteSpace=wrap;html=1;aspect=fixed;fillColor=#0D0D0D;strokeColor=#298DFF;strokeWidth=5;" parent="1" vertex="1">
          <mxGeometry x="390" y="100" width="170" height="170" as="geometry" />
        </mxCell>
        <mxCell id="0BK07vj8BW1-FpH2MkM1-16" style="edgeStyle=orthogonalEdgeStyle;rounded=0;orthogonalLoop=1;jettySize=auto;html=1;exitX=0.5;exitY=0;exitDx=0;exitDy=0;entryX=0;entryY=0.25;entryDx=0;entryDy=0;fillColor=#e6d0de;strokeColor=#996185;gradientColor=#d5739d;strokeWidth=2;" parent="1" source="0BK07vj8BW1-FpH2MkM1-10" target="0BK07vj8BW1-FpH2MkM1-15" edge="1">
          <mxGeometry relative="1" as="geometry">
            <Array as="points">
              <mxPoint x="360" y="230" />
              <mxPoint x="393" y="230" />
              <mxPoint x="393" y="345" />
            </Array>
          </mxGeometry>
        </mxCell>
        <mxCell id="0BK07vj8BW1-FpH2MkM1-17" style="edgeStyle=orthogonalEdgeStyle;rounded=0;orthogonalLoop=1;jettySize=auto;html=1;exitX=0.5;exitY=0;exitDx=0;exitDy=0;entryX=0;entryY=0.5;entryDx=0;entryDy=0;strokeWidth=2;fillColor=#dae8fc;gradientColor=#7ea6e0;strokeColor=#6c8ebf;" parent="1" source="0BK07vj8BW1-FpH2MkM1-10" target="0BK07vj8BW1-FpH2MkM1-9" edge="1">
          <mxGeometry relative="1" as="geometry" />
        </mxCell>
        <mxCell id="0BK07vj8BW1-FpH2MkM1-10" value="Gigabit POE Switch" style="rounded=0;whiteSpace=wrap;html=1;rotation=90;" parent="1" vertex="1">
          <mxGeometry x="227.5" y="137.5" width="170" height="95" as="geometry" />
        </mxCell>
        <mxCell id="0BK07vj8BW1-FpH2MkM1-15" value="&lt;div&gt;Intel NUC&lt;/div&gt;&lt;div&gt;&lt;br&gt;&lt;/div&gt;&lt;div&gt;Proxmox VE&lt;br&gt;&lt;/div&gt;" style="whiteSpace=wrap;html=1;aspect=fixed;" parent="1" vertex="1">
          <mxGeometry x="425" y="320" width="100" height="100" as="geometry" />
        </mxCell>
      </root>
    </mxGraphModel>
  </diagram>
</mxfile>
